<svg preserveAspectRatio="xMidYMid meet" width="100%" height="100%" overflow="visible" style="display: block;" viewBox="0 0 17.5 20" fill="none" xmlns="http://www.w3.org/2000/svg">
<g id="Img">
<path id="Vector" d="M0.3125 10C0.3125 9.41984 0.542968 8.86344 0.953204 8.4532C1.36344 8.04297 1.91984 7.8125 2.5 7.8125C3.08016 7.8125 3.63656 8.04297 4.0468 8.4532C4.45703 8.86344 4.6875 9.41984 4.6875 10C4.6875 10.5802 4.45703 11.1366 4.0468 11.5468C3.63656 11.957 3.08016 12.1875 2.5 12.1875C1.91984 12.1875 1.36344 11.957 0.953204 11.5468C0.542968 11.1366 0.3125 10.5802 0.3125 10ZM6.5625 10C6.5625 9.41984 6.79297 8.86344 7.2032 8.4532C7.61344 8.04297 8.16984 7.8125 8.75 7.8125C9.33016 7.8125 9.88656 8.04297 10.2968 8.4532C10.707 8.86344 10.9375 9.41984 10.9375 10C10.9375 10.5802 10.707 11.1366 10.2968 11.5468C9.88656 11.957 9.33016 12.1875 8.75 12.1875C8.16984 12.1875 7.61344 11.957 7.2032 11.5468C6.79297 11.1366 6.5625 10.5802 6.5625 10ZM15 7.8125C15.5802 7.8125 16.1366 8.04297 16.5468 8.4532C16.957 8.86344 17.1875 9.41984 17.1875 10C17.1875 10.5802 16.957 11.1366 16.5468 11.5468C16.1366 11.957 15.5802 12.1875 15 12.1875C14.4198 12.1875 13.8634 11.957 13.4532 11.5468C13.043 11.1366 12.8125 10.5802 12.8125 10C12.8125 9.41984 13.043 8.86344 13.4532 8.4532C13.8634 8.04297 14.4198 7.8125 15 7.8125Z" fill="var(--fill-0, #FF5A1F)"/>
</g>
</svg>
