<svg preserveAspectRatio="xMidYMid meet" width="100%" height="100%" overflow="visible" style="display: block;" viewBox="0 0 14 16.0031" fill="none" xmlns="http://www.w3.org/2000/svg">
<g id="Img">
<path id="Vector" d="M0 1V1.425C0 1.95937 0.053125 2.4875 0.15625 3H11.1812C11.2812 2.78437 11.4156 2.58437 11.5875 2.4125L12.7937 1.20625C12.925 1.075 13 0.89375 13 0.70625C13 0.315625 12.6844 0 12.2937 0H1C0.446875 0 0 0.446875 0 1ZM11.0063 4H0.425C0.80625 5.12188 1.43438 6.14688 2.2625 7H12.875L11.4 5.03438C11.1719 4.73125 11.0375 4.37187 11.0063 4ZM3.94375 8.31875L7.58125 10.4594C7.8375 10.6094 8.075 10.7938 8.28438 11H13.9062C13.9688 10.6937 14 10.3781 14 10.0594C14 9.34062 13.8344 8.6375 13.5219 8H3.44375C3.60625 8.1125 3.77187 8.21875 3.94375 8.31875ZM9 12C9.32188 12.6687 9.43125 13.4219 9.30937 14.1562L9.125 15.2719C9.0625 15.6531 9.35625 16.0031 9.74375 16.0031C9.90937 16.0031 10.0688 15.9375 10.1875 15.8188L12.6313 13.375C13.0313 12.975 13.3531 12.5094 13.5813 12.0031H9V12Z" fill="var(--fill-0, #FF5A1F)"/>
</g>
</svg>
