<svg preserveAspectRatio="xMidYMid meet" width="100%" height="100%" overflow="visible" style="display: block;" viewBox="0 0 18 16.0031" fill="none" xmlns="http://www.w3.org/2000/svg">
<g id="Img">
<path id="Vector" d="M1.95625 0.0727924C1.44375 -0.133458 0.8625 0.113417 0.653125 0.625917C0.23125 1.66967 0 2.81029 0 4.00092C0 5.19154 0.23125 6.33217 0.653125 7.37592C0.859375 7.88842 1.44375 8.13529 1.95625 7.92904C2.46875 7.72279 2.71563 7.13842 2.50938 6.62592C2.18125 5.81654 2 4.93217 2 4.00092C2 3.06967 2.18125 2.18529 2.50938 1.37592C2.71563 0.863417 2.46875 0.282167 1.95625 0.0727924ZM16.0438 0.0727924C15.5313 0.282167 15.2844 0.863417 15.4906 1.37592C15.8188 2.18529 16 3.06967 16 4.00092C16 4.93217 15.8188 5.81654 15.4906 6.62592C15.2844 7.13842 15.5313 7.71967 16.0438 7.92904C16.5563 8.13842 17.1375 7.88842 17.3469 7.37592C17.7687 6.33217 18 5.19154 18 4.00092C18 2.81029 17.7687 1.66967 17.3469 0.625917C17.1375 0.113417 16.5563 -0.133458 16.0438 0.0727924ZM10.6281 5.16342C10.8625 4.83529 11 4.43529 11 4.00092C11 2.89779 10.1031 2.00092 9 2.00092C7.89688 2.00092 7 2.89779 7 4.00092C7 4.43529 7.1375 4.83529 7.37187 5.16342L3.09063 14.5884C2.8625 15.0915 3.08438 15.6853 3.5875 15.9134C4.09063 16.1415 4.68437 15.9197 4.9125 15.4165L5.55312 14.0009H12.4469L13.0906 15.4134C13.3187 15.9165 13.9125 16.1384 14.4156 15.9103C14.9187 15.6822 15.1406 15.0884 14.9125 14.5853L10.6281 5.16342ZM11.5375 12.0009H6.4625L6.91563 11.0009H11.0844L11.5375 12.0009ZM9 6.41654L10.175 9.00092H7.825L9 6.41654ZM5.10313 2.30092C5.26875 1.92279 5.09687 1.47904 4.71562 1.31342C4.33437 1.14779 3.89375 1.31967 3.72813 1.70092C3.42188 2.40717 3.25 3.18529 3.25 4.00092C3.25 4.81654 3.42188 5.59467 3.72813 6.30092C3.89375 6.67904 4.3375 6.85404 4.71562 6.68842C5.09375 6.52279 5.26875 6.07904 5.10313 5.70092C4.875 5.18217 4.75 4.60717 4.75 4.00092C4.75 3.39467 4.875 2.81967 5.10313 2.30092ZM14.2719 1.70092C14.1063 1.32279 13.6625 1.14779 13.2844 1.31342C12.9063 1.47904 12.7313 1.92279 12.8969 2.30092C13.125 2.81967 13.25 3.39467 13.25 4.00092C13.25 4.60717 13.125 5.18217 12.8969 5.70092C12.7313 6.07904 12.9031 6.52279 13.2844 6.68842C13.6656 6.85404 14.1063 6.68217 14.2719 6.30092C14.5781 5.59467 14.75 4.81654 14.75 4.00092C14.75 3.18529 14.5781 2.40717 14.2719 1.70092Z" fill="var(--fill-0, #FF5A1F)"/>
</g>
</svg>
